<?xml version="1.0" encoding="UTF-8"?>
<!DOCTYPE svg PUBLIC "-//W3C//DTD SVG 1.1//EN" "http://www.w3.org/Graphics/SVG/1.1/DTD/svg11.dtd">
<!-- Creator: CorelDRAW (Versión de evaluación) -->
<svg xmlns="http://www.w3.org/2000/svg" xml:space="preserve" width="108.466mm" height="90.5045mm" version="1.1" style="shape-rendering:geometricPrecision; text-rendering:geometricPrecision; image-rendering:optimizeQuality; fill-rule:evenodd; clip-rule:evenodd"
viewBox="0 0 4130.78 3446.74"
 xmlns:xlink="http://www.w3.org/1999/xlink"
 xmlns:xodm="http://www.corel.com/coreldraw/odm/2003">
 <defs>
  <style type="text/css">
   <![CDATA[
    .fil0 {fill:#E6E6E6}
   ]]>
  </style>
 </defs>
 <g id="Capa_x0020_1">
  <metadata id="CorelCorpID_0Corel-Layer"/>
  <path class="fil0" d="M481.31 2593.71l-481.31 849.17c379.3,-8.66 2659.98,21.69 2915.51,-14.02 442.27,-61.82 741.8,-265.05 904.12,-562.23 94.98,-173.88 -4.56,-120.13 -140.12,-482.97 -251.63,-673.47 -11.78,-694.87 -233.46,-869.03 -243.67,-191.45 -598.68,-196.95 -905.86,-197.35 -241.83,-0.31 -483.67,0.43 -725.49,0.05 -211.66,-0.34 -523.76,43.17 -648.54,-88.64 -92.96,-98.19 -128.09,-385.89 204.82,-388.27 246.22,-1.77 493,0.03 739.29,-0.16 490.68,-0.37 990.95,9.8 1480.32,-0.96 26.79,-62.43 87.92,-143.53 129.86,-207.73 47.48,-72.69 90.58,-140.65 138.15,-211.56 54.86,-81.78 246.27,-354.95 272.19,-419.35 -644.53,23.54 -1533.07,1.99 -2222.04,1.76 -604.95,-0.2 -1344.27,-70.63 -1668.9,561.45 -177.36,345.32 -132.02,931.6 96.16,1186.35 251.2,280.44 608.84,369.05 1102.51,368.88 246.31,-0.09 492.62,-0.05 738.93,-0.36 192.73,-0.24 563.65,-36.61 694.27,64.28 57.83,44.67 111.62,155.53 65.33,258.48 -37.3,82.93 -106.12,131.45 -226.56,148.51 -128.51,18.2 -2038.69,6.62 -2229.17,3.69z"/>
 </g>
</svg>
