<?xml version="1.0" encoding="UTF-8"?>
<!DOCTYPE svg PUBLIC "-//W3C//DTD SVG 1.1//EN" "http://www.w3.org/Graphics/SVG/1.1/DTD/svg11.dtd">
<!-- Creator: CorelDRAW (Versión de evaluación) -->
<svg xmlns="http://www.w3.org/2000/svg" xml:space="preserve" width="94.93mm" height="90.4604mm" version="1.1" style="shape-rendering:geometricPrecision; text-rendering:geometricPrecision; image-rendering:optimizeQuality; fill-rule:evenodd; clip-rule:evenodd"
viewBox="0 0 10091.33 9616.2"
 xmlns:xlink="http://www.w3.org/1999/xlink"
 xmlns:xodm="http://www.corel.com/coreldraw/odm/2003">
 <defs>
  <style type="text/css">
   <![CDATA[
    .fil0 {fill:#EE454B}
   ]]>
  </style>
 </defs>
 <g id="Capa_x0020_1">
  <metadata id="CorelCorpID_0Corel-Layer"/>
  <path class="fil0" d="M10050.87 9605.72c69.1,-294.04 28.65,-1111.82 29.03,-1463.62 0.52,-486.72 -2.55,-973.86 -1.04,-1460.97 2.78,-902.94 -63.34,-2047.82 10.31,-2929.87l-4415.38 14.78c-115.09,74.85 -1201.15,1905.95 -1291.8,2103.72l3078.35 -1.54 9.21 1299.84c-468.22,64.64 -1408.5,10.26 -1921.29,10.41 -723.84,0.2 -1039.24,8.71 -1662.38,-298.08 -185.15,-91.15 -454.3,-284.96 -569.94,-401.72 -520.1,-525.17 -798.11,-1452.2 -704.47,-2251.3 122.65,-1046.58 954.32,-1804.88 2073.66,-1847.86 1304.92,-50.11 2673.94,55.4 3972.39,-6.2 141.79,-168.61 243.93,-402.28 324.24,-579.34 94.94,-209.32 215.32,-380.71 314.51,-582.59 127.02,-258.57 545.3,-999.97 614.51,-1207.31 -1158.68,67.93 -2508.59,7.16 -3688.23,7.28 -1894.07,0.19 -3060.08,-186.32 -4559.41,946.32l-230.04 221.04c-237.29,263.84 -335.23,258.32 -641.64,748.95 -1155.9,1850.76 -1050.78,4234.52 348.88,5974.33 105.57,131.23 69.39,120.58 207.85,245.34 59.29,53.42 20.88,14.76 56.69,55.39 385.81,437.61 1074.93,849.13 1642.01,1059.1 1144.36,423.71 2091.42,343.46 3325.49,345.05 1219.72,1.57 2461.58,20.91 3678.48,-1.14z"/>
 </g>
</svg>
